<svg width="1165" height="366" viewBox="0 0 1165 366" fill="none" xmlns="http://www.w3.org/2000/svg">
<g clip-path="url(#clip0_2005_93)">
<mask id="mask0_2005_93" style="mask-type:luminance" maskUnits="userSpaceOnUse" x="334" y="0" width="831" height="366">
<path d="M1165 0H334V365.17H1165V0Z" fill="white"/>
</mask>
<g mask="url(#mask0_2005_93)">
<path d="M334.059 166.33C334.679 134.02 349.889 103.38 376.099 84.4502C390.759 73.8602 409.699 68.8302 427.749 68.9302C472.239 69.1802 500.199 89.0902 514.439 126.26C518.609 137.17 520.839 145.47 521.289 157.13C521.629 166.3 521.789 178.32 521.829 183.4C521.829 184.74 520.769 185.81 519.429 185.81H382.519C380.709 185.81 379.249 187.31 379.309 189.12C380.349 220.05 396.199 237.77 427.749 238.44C447.819 238.87 463.969 230.46 470.749 216.17C471.259 215.08 472.379 214.41 473.599 214.41H517.259C518.809 214.41 519.989 215.88 519.589 217.41C510.809 251.9 478.299 279.88 427.749 280.6C359.269 280.43 338.449 230.44 334.299 182.61C333.939 178.51 333.939 172.29 334.049 166.32V166.34L334.059 166.33ZM469.049 146.33C470.989 146.33 472.479 144.62 472.229 142.69C469.219 119.35 452.109 106.3 427.969 106.3C400.019 106.3 385.689 118.56 380.089 142.35C379.619 144.38 381.119 146.32 383.199 146.32H469.049V146.33Z" fill="white"/>
<path d="M685.599 75.4002V79.9202C685.599 82.3602 682.999 83.9002 680.859 82.7302C670.869 75.0802 658.989 68.9002 637.819 68.9102C591.729 68.9602 552.329 100.48 547.649 145.55C546.819 153.48 546.669 183.26 546.859 186.07C550.349 242.31 566.189 280.84 636.229 280.84C661.839 280.84 670.739 272.74 681.219 266.01C683.319 265.14 685.629 266.71 685.629 268.98V317.05C712.179 317.05 733.709 289.78 733.709 263.22V75.4002C733.709 73.6302 732.279 72.1902 730.499 72.1902H688.839C687.069 72.1902 685.629 73.6202 685.629 75.3902L685.599 75.4002ZM685.229 190.32C685.229 195.53 684.519 202.49 682.979 207.58C676.579 228.66 662.369 239.82 636.519 239.82C612.679 239.82 595.699 226.2 592.379 202.84C592.029 200.44 591.899 198.01 591.899 195.58V155.56C591.899 150.25 592.609 144.96 594.149 139.88C600.549 118.8 614.759 106.82 640.609 106.82C664.449 106.82 681.429 121.26 684.749 144.63C685.089 147.03 685.229 149.46 685.229 151.89V190.34V190.32Z" fill="white"/>
<path d="M561.44 317.09H685.63V320.3C685.63 345.09 665.54 365.17 640.76 365.17H561.44C559.67 365.17 558.23 363.73 558.23 361.96V320.3C558.23 318.53 559.67 317.09 561.44 317.09Z" fill="white"/>
<path d="M1097.7 72.1301C1099.47 72.1301 1100.92 73.5301 1100.92 75.3001C1100.92 86.6501 1100.9 205.37 1100.9 226.49C1100.9 228.26 1102.34 229.7 1104.11 229.7H1161.79C1163.56 229.7 1165 231.14 1165 232.91V274.78C1165 276.55 1163.57 277.99 1161.79 277.99H991.928C990.158 277.99 988.718 276.56 988.718 274.78V232.9C988.718 231.13 990.148 229.69 991.928 229.69H1049.61C1051.38 229.69 1052.81 228.26 1052.81 226.48L1052.78 120.18C1052.78 118.41 1051.34 116.97 1049.57 116.97H991.878C990.108 116.97 988.668 115.54 988.668 113.76V75.3101C988.668 73.5401 990.098 72.1001 991.878 72.1001H1097.7V72.1201V72.1301Z" fill="white"/>
<path d="M910.9 72.1299C909.13 72.1299 907.69 73.5699 907.69 75.3399V192.16C907.69 195.39 907.46 198.84 907.07 202.11C906.32 208.25 904.46 214.24 901.28 219.55C893.34 232.89 879.58 239.42 858.99 239.82C835.72 240.27 818.54 225.08 815.21 202.11C814.87 199.76 814.39 194.57 814.39 192.16V75.3399C814.39 73.5699 812.96 72.1299 811.18 72.1299H768.39C766.62 72.1299 765.18 73.5699 765.18 75.3399V188.89C765.18 240.58 788.39 282.7 860.25 281.02C883.37 277.82 890.5 272.68 903.44 266.05C905.56 264.96 908.09 266.52 908.09 268.91L907.97 274.61C907.97 276.38 909.41 277.82 911.18 277.82H952.89C954.66 277.82 956.1 276.38 956.1 274.61V75.3399C956.1 73.5699 954.67 72.1299 952.89 72.1299H910.9Z" fill="white"/>
<path d="M1097.66 0H1056C1054.22 0 1052.79 1.43 1052.79 3.21V44.88C1052.79 46.65 1054.22 48.09 1056 48.09H1097.66C1099.43 48.09 1100.87 46.66 1100.87 44.88V3.21C1100.87 1.44 1099.43 0 1097.66 0Z" fill="white"/>
</g>
<path d="M165.96 72C171.15 72 175.95 74.8 178.55 79.34L229.02 167.66C231.62 172.2 231.62 177.8 229.02 182.34L178.55 270.66C175.95 275.2 171.15 278 165.96 278H65.01C59.82 278 55.02 275.2 52.42 270.66L1.95 182.34C-0.65 177.8 -0.65 172.2 1.95 167.66L52.43 79.34C55.03 74.8 59.82 72 65.02 72H165.97H165.96ZM99.88 249.29C99.88 251.36 101.56 253.03 103.63 253.03H127.56C129.51 253.03 131.09 251.45 131.09 249.5V221.82C131.09 204.58 117.12 190.61 99.88 190.61V249.29ZM40.99 159.39C39.04 159.39 37.46 160.97 37.46 162.92V186.85C37.46 188.92 39.14 190.6 41.21 190.6H99.89C99.89 173.36 85.92 159.39 68.68 159.39H41H40.99ZM131.09 159.39C131.09 176.63 145.06 190.6 162.3 190.6H189.98C191.93 190.6 193.51 189.02 193.51 187.07V163.14C193.51 161.07 191.83 159.39 189.76 159.39H131.08H131.09ZM103.41 96.97C101.46 96.97 99.88 98.55 99.88 100.5V128.18C99.88 145.42 113.85 159.39 131.09 159.39V100.71C131.09 98.64 129.41 96.96 127.34 96.96H103.41V96.97Z" fill="white"/>
</g>
<defs>
<clipPath id="clip0_2005_93">
<rect width="1165" height="366" fill="white"/>
</clipPath>
</defs>
</svg>
