<svg xmlns="http://www.w3.org/2000/svg" fill="none" viewBox="0 0 16 16">
<rect x="0.1" y="0.1" width="15.8" height="15.8" rx="2.75714" fill="black" data-darkreader-inline-fill="" style="--darkreader-inline-fill: var(--darkreader-background-000000, #000000);"/>
<rect x="0.1" y="0.1" width="15.8" height="15.8" rx="2.75714" stroke="white" stroke-width="0.2" data-darkreader-inline-stroke="" style="--darkreader-inline-stroke: var(--darkreader-text-ffffff, #e8e6e3);"/>
<path d="M10.6112 2.54492C10.8843 2.54492 11.1367 2.69172 11.2733 2.93066L13.9286 7.5752C14.065 7.81401 14.0649 8.10877 13.9286 8.34766L11.2733 12.9932C11.1367 13.232 10.8843 13.3789 10.6112 13.3789H5.30162C5.02857 13.3789 4.77605 13.2321 4.63951 12.9932L1.98521 8.34766C1.8487 8.10872 1.84866 7.81412 1.98521 7.5752L4.63951 2.93066C4.77605 2.69176 5.02855 2.54497 5.30162 2.54492H10.6112ZM7.13658 11.8691C7.13674 11.9778 7.22514 12.0654 7.33384 12.0654H8.59263C8.69507 12.0652 8.77818 11.9824 8.77818 11.8799V10.4238C8.77797 9.51742 8.04301 8.78231 7.13658 8.78223V11.8691ZM4.03892 7.14062C3.93634 7.1407 3.85337 7.22456 3.85337 7.32715V8.58594C3.85355 8.6946 3.94195 8.78223 4.05064 8.78223H7.13658C7.13637 7.87582 6.40142 7.1407 5.49498 7.14062H4.03892ZM8.7772 7.14062C8.7772 8.04726 9.51217 8.78223 10.4188 8.78223H11.8749C11.9773 8.78201 12.0604 8.69918 12.0604 8.59668V7.33789C12.0604 7.22913 11.9719 7.14062 11.8631 7.14062H8.7772ZM7.32212 3.85742C7.21955 3.85749 7.13658 3.94135 7.13658 4.04395V5.49902C7.13658 6.40566 7.87154 7.14062 8.77818 7.14062V4.05469C8.77816 3.94591 8.68971 3.85742 8.58091 3.85742H7.32212Z" fill="white" data-darkreader-inline-fill="" style="--darkreader-inline-fill: var(--darkreader-background-ffffff, #181a1b);"/>
</svg>